<svg xmlns="http://www.w3.org/2000/svg" xmlns:v="https://svgstorm.com"
viewBox = "0 0 320 320"
width="320"
height="320">
<g fill="None" fill-opacity="0.0" stroke="#000000" stroke-opacity="0.00" stroke-width="0.3"><path d="
M 0.00 320.00 
L 320.00 320.00
L 320.00 0.00
L 0.00 0.00
L 0.00 320.00
M 152.00 246.00 
C 136.00 246.00 120.00 246.00 104.00 246.00
C 104.00 262.67 104.00 279.33 104.00 296.00
C 88.00 296.00 72.00 296.00 56.00 296.00
C 56.00 279.33 56.00 262.67 56.00 246.00
C 40.00 246.00 24.00 246.00 8.00 246.00
C 8.13 228.31 15.26 211.84 26.25 198.25 C 41.70 186.64 41.06 167.80 44.93 150.93 C 51.59 113.51 59.26 76.40 66.00 39.00 C 73.17 36.07 87.97 34.87 94.30 39.70 C 102.57 85.33 111.93 131.69 120.00 178.00 C 124.55 193.22 141.34 202.38 145.92 218.08 C 149.65 226.86 151.98 236.16 152.00 246.00
M 308.00 128.00 
C 303.15 133.66 297.63 139.22 292.00 144.00
C 292.00 173.67 292.00 203.33 292.00 233.00
C 277.83 248.00 262.95 262.88 248.00 277.00
C 232.00 277.00 216.00 277.00 200.00 277.00
C 185.00 262.83 170.12 247.96 156.00 233.00
C 156.00 203.33 156.00 173.67 156.00 144.00
C 150.34 139.15 144.78 133.63 140.00 128.00
C 140.00 111.33 140.00 94.67 140.00 78.00
C 172.46 81.21 192.35 49.32 224.00 50.00 C 255.52 49.53 275.63 81.15 308.00 78.00
C 308.00 94.67 308.00 111.33 308.00 128.00 Z"/>
</g>
<g fill="None" fill-opacity="0.0" stroke="#000000" stroke-opacity="1.00" stroke-width="0.3"><path d="
M 152.00 246.00 
C 151.98 236.16 149.65 226.86 145.92 218.08 C 141.34 202.38 124.55 193.22 120.00 178.00 C 111.93 131.69 102.57 85.33 94.30 39.70 C 87.97 34.87 73.17 36.07 66.00 39.00 C 59.26 76.40 51.59 113.51 44.93 150.93 C 41.06 167.80 41.70 186.64 26.25 198.25 C 15.26 211.84 8.13 228.31 8.00 246.00
C 24.00 246.00 40.00 246.00 56.00 246.00
C 56.00 262.67 56.00 279.33 56.00 296.00
C 72.00 296.00 88.00 296.00 104.00 296.00
C 104.00 279.33 104.00 262.67 104.00 246.00
C 120.00 246.00 136.00 246.00 152.00 246.00
M 105.00 186.00 
C 88.33 186.00 71.67 186.00 55.00 186.00
C 63.32 144.02 69.97 100.84 80.00 59.00
C 89.74 99.77 96.95 143.49 105.00 186.00
M 133.00 229.00 
C 97.67 229.00 62.33 229.00 27.00 229.00
C 31.51 216.04 38.18 202.13 51.01 196.01 C 70.01 195.99 89.00 196.01 108.00 196.00 C 121.71 200.90 128.25 216.02 133.00 229.00
M 87.00 246.00 
C 87.00 257.00 87.00 268.00 87.00 279.00
C 82.33 279.00 77.67 279.00 73.00 279.00
C 73.00 268.00 73.00 257.00 73.00 246.00
C 77.67 246.00 82.33 246.00 87.00 246.00 Z"/>
</g>
<g fill="None" fill-opacity="0.0" stroke="#000000" stroke-opacity="1.00" stroke-width="0.3"><path d="
M 140.00 128.00 
C 145.66 132.85 151.22 138.37 156.00 144.00
C 156.00 173.67 156.00 203.33 156.00 233.00
C 171.00 247.17 185.88 262.05 200.00 277.00
C 216.00 277.00 232.00 277.00 248.00 277.00
C 262.17 262.00 277.05 247.12 292.00 233.00
C 292.00 203.33 292.00 173.67 292.00 144.00
C 296.85 138.34 302.37 132.78 308.00 128.00
C 308.00 111.33 308.00 94.67 308.00 78.00
C 275.63 81.15 255.52 49.53 224.00 50.00 C 192.35 49.32 172.46 81.21 140.00 78.00
C 140.00 94.67 140.00 111.33 140.00 128.00
M 275.00 229.00 
C 265.16 239.66 254.62 250.22 244.00 260.00
C 237.33 260.00 230.67 260.00 224.00 260.00
C 224.00 195.67 224.00 131.33 224.00 67.00
C 250.68 67.03 265.46 90.92 291.00 92.00
C 289.33 106.41 296.66 124.72 281.75 133.75 C 268.61 144.04 277.67 163.47 275.00 178.00 C 275.00 195.00 275.00 212.00 275.00 229.00
M 214.00 68.00 
C 214.00 132.00 214.00 196.00 214.00 260.00
C 201.79 263.22 193.96 250.96 197.00 240.00 C 197.00 189.67 197.00 139.33 197.00 89.00 C 193.02 75.87 202.80 69.59 214.00 68.00
M 187.00 82.00 
C 187.00 135.33 187.00 188.67 187.00 242.00
C 176.11 234.72 169.95 224.39 173.00 211.00 C 173.00 196.00 173.00 181.00 173.00 166.00 C 172.26 153.27 177.19 136.98 163.25 130.75 C 152.26 121.22 158.69 105.07 157.00 92.00
C 167.59 91.64 177.61 85.76 187.00 82.00 Z"/>
</g>
<g fill="None" fill-opacity="0.0" stroke="#000000" stroke-opacity="0.01" stroke-width="0.3"><path d="
M 105.00 186.00 
C 96.95 143.49 89.74 99.77 80.00 59.00
C 69.97 100.84 63.32 144.02 55.00 186.00
C 71.67 186.00 88.33 186.00 105.00 186.00 Z"/>
</g>
<g fill="None" fill-opacity="0.0" stroke="#000000" stroke-opacity="0.01" stroke-width="0.3"><path d="
M 244.00 260.00 
C 253.84 249.34 264.38 238.78 275.00 229.00
C 275.00 212.00 275.00 195.00 275.00 178.00 C 277.67 163.47 268.61 144.04 281.75 133.75 C 296.66 124.72 289.33 106.41 291.00 92.00
C 265.46 90.92 250.68 67.03 224.00 67.00
C 224.00 131.33 224.00 195.67 224.00 260.00
C 230.67 260.00 237.33 260.00 244.00 260.00
M 258.00 108.00 
C 261.19 104.02 265.03 100.11 269.00 97.00
C 271.33 97.00 273.67 97.00 276.00 97.00
C 279.19 106.34 265.72 109.14 265.34 116.68 C 269.81 123.06 280.02 126.90 278.00 136.00
C 268.47 138.27 265.01 126.68 257.77 123.23 C 250.10 125.67 246.82 138.57 237.00 136.00
C 234.98 127.19 244.70 123.23 249.25 117.25 C 250.68 109.42 235.37 106.55 239.00 97.00
C 248.03 94.28 250.97 105.80 258.00 108.00 Z"/>
</g>
<g fill="None" fill-opacity="0.0" stroke="#000000" stroke-opacity="0.00" stroke-width="0.3"><path d="
M 214.00 68.00 
C 202.80 69.59 193.02 75.87 197.00 89.00 C 197.00 139.33 197.00 189.67 197.00 240.00 C 193.96 250.96 201.79 263.22 214.00 260.00
C 214.00 196.00 214.00 132.00 214.00 68.00 Z"/>
</g>
<g fill="None" fill-opacity="0.0" stroke="#000000" stroke-opacity="0.00" stroke-width="0.3"><path d="
M 187.00 82.00 
C 177.61 85.76 167.59 91.64 157.00 92.00
C 158.69 105.07 152.26 121.22 163.25 130.75 C 177.19 136.98 172.26 153.27 173.00 166.00 C 173.00 181.00 173.00 196.00 173.00 211.00 C 169.95 224.39 176.11 234.72 187.00 242.00
C 187.00 188.67 187.00 135.33 187.00 82.00 Z"/>
</g>
<g fill="None" fill-opacity="0.0" stroke="#000000" stroke-opacity="1.00" stroke-width="0.3"><path d="
M 269.00 97.00 
C 265.81 100.98 261.97 104.89 258.00 108.00
C 250.97 105.80 248.03 94.28 239.00 97.00
C 235.37 106.55 250.68 109.42 249.25 117.25 C 244.70 123.23 234.98 127.19 237.00 136.00
C 246.82 138.57 250.10 125.67 257.77 123.23 C 265.01 126.68 268.47 138.27 278.00 136.00
C 280.02 126.90 269.81 123.06 265.34 116.68 C 265.72 109.14 279.19 106.34 276.00 97.00
C 273.67 97.00 271.33 97.00 269.00 97.00 Z"/>
</g>
<g fill="None" fill-opacity="0.0" stroke="#000000" stroke-opacity="0.50" stroke-width="0.3"><path d="
M 156.00 144.00 
C 151.22 138.37 145.66 132.85 140.00 128.00
C 144.78 133.63 150.34 139.15 156.00 144.00 Z"/>
</g>
<g fill="None" fill-opacity="0.0" stroke="#000000" stroke-opacity="0.50" stroke-width="0.3"><path d="
M 292.00 144.00 
C 297.63 139.22 303.15 133.66 308.00 128.00
C 302.37 132.78 296.85 138.34 292.00 144.00 Z"/>
</g>
<g fill="None" fill-opacity="0.0" stroke="#000000" stroke-opacity="0.00" stroke-width="0.3"><path d="
M 133.00 229.00 
C 128.25 216.02 121.71 200.90 108.00 196.00 C 89.00 196.01 70.01 195.99 51.01 196.01 C 38.18 202.13 31.51 216.04 27.00 229.00
C 62.33 229.00 97.67 229.00 133.00 229.00 Z"/>
</g>
<g fill="None" fill-opacity="0.0" stroke="#000000" stroke-opacity="0.50" stroke-width="0.3"><path d="
M 200.00 277.00 
C 185.88 262.05 171.00 247.17 156.00 233.00
C 170.12 247.96 185.00 262.83 200.00 277.00 Z"/>
</g>
<g fill="None" fill-opacity="0.0" stroke="#000000" stroke-opacity="0.50" stroke-width="0.3"><path d="
M 248.00 277.00 
C 262.95 262.88 277.83 248.00 292.00 233.00
C 277.05 247.12 262.17 262.00 248.00 277.00 Z"/>
</g>
<g fill="None" fill-opacity="0.0" stroke="#000000" stroke-opacity="0.00" stroke-width="0.3"><path d="
M 87.00 246.00 
C 82.33 246.00 77.67 246.00 73.00 246.00
C 73.00 257.00 73.00 268.00 73.00 279.00
C 77.67 279.00 82.33 279.00 87.00 279.00
C 87.00 268.00 87.00 257.00 87.00 246.00 Z"/>
</g>
<g fill="#000000" fill-opacity="0.00" stroke="None"><path d="
M 0.00 320.00 
L 320.00 320.00
L 320.00 0.00
L 0.00 0.00
L 0.00 320.00
M 308.00 128.00 
C 303.15 133.66 297.63 139.22 292.00 144.00
C 292.00 173.67 292.00 203.33 292.00 233.00
C 277.83 248.00 262.95 262.88 248.00 277.00
C 232.00 277.00 216.00 277.00 200.00 277.00
C 185.00 262.83 170.12 247.96 156.00 233.00
C 156.00 203.33 156.00 173.67 156.00 144.00
C 150.34 139.15 144.78 133.63 140.00 128.00
C 140.00 111.33 140.00 94.67 140.00 78.00
C 172.46 81.21 192.35 49.32 224.00 50.00 C 255.52 49.53 275.63 81.15 308.00 78.00
C 308.00 94.67 308.00 111.33 308.00 128.00 Z"/>
</g>
<g fill="#000000" fill-opacity="1.00" stroke="None"><path d="
M 152.00 246.00 
C 151.98 236.16 149.65 226.86 145.92 218.08 C 141.34 202.38 124.55 193.22 120.00 178.00 C 111.93 131.69 102.57 85.33 94.30 39.70 C 87.97 34.87 73.17 36.07 66.00 39.00 C 59.26 76.40 51.59 113.51 44.93 150.93 C 41.06 167.80 41.70 186.64 26.25 198.25 C 15.26 211.84 8.13 228.31 8.00 246.00
C 24.00 246.00 40.00 246.00 56.00 246.00
C 56.00 262.67 56.00 279.33 56.00 296.00
C 72.00 296.00 88.00 296.00 104.00 296.00
C 104.00 279.33 104.00 262.67 104.00 246.00
C 120.00 246.00 136.00 246.00 152.00 246.00
M 105.00 186.00 
C 88.33 186.00 71.67 186.00 55.00 186.00
C 63.32 144.02 69.97 100.84 80.00 59.00
C 89.74 99.77 96.95 143.49 105.00 186.00
M 133.00 229.00 
C 97.67 229.00 62.33 229.00 27.00 229.00
C 31.51 216.04 38.18 202.13 51.01 196.01 C 70.01 195.99 89.00 196.01 108.00 196.00 C 121.71 200.90 128.25 216.02 133.00 229.00
M 87.00 246.00 
C 87.00 257.00 87.00 268.00 87.00 279.00
C 82.33 279.00 77.67 279.00 73.00 279.00
C 73.00 268.00 73.00 257.00 73.00 246.00
C 77.67 246.00 82.33 246.00 87.00 246.00 Z"/>
</g>
<g fill="#000000" fill-opacity="1.00" stroke="None"><path d="
M 140.00 128.00 
C 145.66 132.85 151.22 138.37 156.00 144.00
C 156.00 173.67 156.00 203.33 156.00 233.00
C 171.00 247.17 185.88 262.05 200.00 277.00
C 216.00 277.00 232.00 277.00 248.00 277.00
C 262.17 262.00 277.05 247.12 292.00 233.00
C 292.00 203.33 292.00 173.67 292.00 144.00
C 296.85 138.34 302.37 132.78 308.00 128.00
C 308.00 111.33 308.00 94.67 308.00 78.00
C 275.63 81.15 255.52 49.53 224.00 50.00 C 192.35 49.32 172.46 81.21 140.00 78.00
C 140.00 94.67 140.00 111.33 140.00 128.00
M 275.00 229.00 
C 265.16 239.66 254.62 250.22 244.00 260.00
C 237.33 260.00 230.67 260.00 224.00 260.00
C 224.00 195.67 224.00 131.33 224.00 67.00
C 250.68 67.03 265.46 90.92 291.00 92.00
C 289.33 106.41 296.66 124.72 281.75 133.75 C 268.61 144.04 277.67 163.47 275.00 178.00 C 275.00 195.00 275.00 212.00 275.00 229.00
M 214.00 68.00 
C 214.00 132.00 214.00 196.00 214.00 260.00
C 201.79 263.22 193.96 250.96 197.00 240.00 C 197.00 189.67 197.00 139.33 197.00 89.00 C 193.02 75.87 202.80 69.59 214.00 68.00
M 187.00 82.00 
C 187.00 135.33 187.00 188.67 187.00 242.00
C 176.11 234.72 169.95 224.39 173.00 211.00 C 173.00 196.00 173.00 181.00 173.00 166.00 C 172.26 153.27 177.19 136.98 163.25 130.75 C 152.26 121.22 158.69 105.07 157.00 92.00
C 167.59 91.64 177.61 85.76 187.00 82.00 Z"/>
</g>
<g fill="#000000" fill-opacity="0.01" stroke="None"><path d="
M 105.00 186.00 
C 96.95 143.49 89.74 99.77 80.00 59.00
C 69.97 100.84 63.32 144.02 55.00 186.00
C 71.67 186.00 88.33 186.00 105.00 186.00 Z"/>
</g>
<g fill="#000000" fill-opacity="0.01" stroke="None"><path d="
M 244.00 260.00 
C 253.84 249.34 264.38 238.78 275.00 229.00
C 275.00 212.00 275.00 195.00 275.00 178.00 C 277.67 163.47 268.61 144.04 281.75 133.75 C 296.66 124.72 289.33 106.41 291.00 92.00
C 265.46 90.92 250.68 67.03 224.00 67.00
C 224.00 131.33 224.00 195.67 224.00 260.00
C 230.67 260.00 237.33 260.00 244.00 260.00
M 258.00 108.00 
C 261.19 104.02 265.03 100.11 269.00 97.00
C 271.33 97.00 273.67 97.00 276.00 97.00
C 279.19 106.34 265.72 109.14 265.34 116.68 C 269.81 123.06 280.02 126.90 278.00 136.00
C 268.47 138.27 265.01 126.68 257.77 123.23 C 250.10 125.67 246.82 138.57 237.00 136.00
C 234.98 127.19 244.70 123.23 249.25 117.25 C 250.68 109.42 235.37 106.55 239.00 97.00
C 248.03 94.28 250.97 105.80 258.00 108.00 Z"/>
</g>
<g fill="#000000" fill-opacity="0.00" stroke="None"><path d="
M 214.00 68.00 
C 202.80 69.59 193.02 75.87 197.00 89.00 C 197.00 139.33 197.00 189.67 197.00 240.00 C 193.96 250.96 201.79 263.22 214.00 260.00
C 214.00 196.00 214.00 132.00 214.00 68.00 Z"/>
</g>
<g fill="#000000" fill-opacity="0.00" stroke="None"><path d="
M 187.00 82.00 
C 177.61 85.76 167.59 91.64 157.00 92.00
C 158.69 105.07 152.26 121.22 163.25 130.75 C 177.19 136.98 172.26 153.27 173.00 166.00 C 173.00 181.00 173.00 196.00 173.00 211.00 C 169.95 224.39 176.11 234.72 187.00 242.00
C 187.00 188.67 187.00 135.33 187.00 82.00 Z"/>
</g>
<g fill="#000000" fill-opacity="1.00" stroke="None"><path d="
M 269.00 97.00 
C 265.81 100.98 261.97 104.89 258.00 108.00
C 250.97 105.80 248.03 94.28 239.00 97.00
C 235.37 106.55 250.68 109.42 249.25 117.25 C 244.70 123.23 234.98 127.19 237.00 136.00
C 246.82 138.57 250.10 125.67 257.77 123.23 C 265.01 126.68 268.47 138.27 278.00 136.00
C 280.02 126.90 269.81 123.06 265.34 116.68 C 265.72 109.14 279.19 106.34 276.00 97.00
C 273.67 97.00 271.33 97.00 269.00 97.00 Z"/>
</g>
<g fill="#000000" fill-opacity="0.50" stroke="None"><path d="
M 156.00 144.00 
C 151.22 138.37 145.66 132.85 140.00 128.00
C 144.78 133.63 150.34 139.15 156.00 144.00 Z"/>
</g>
<g fill="#000000" fill-opacity="0.50" stroke="None"><path d="
M 292.00 144.00 
C 297.63 139.22 303.15 133.66 308.00 128.00
C 302.37 132.78 296.85 138.34 292.00 144.00 Z"/>
</g>
<g fill="#000000" fill-opacity="0.00" stroke="None"><path d="
M 133.00 229.00 
C 128.25 216.02 121.71 200.90 108.00 196.00 C 89.00 196.01 70.01 195.99 51.01 196.01 C 38.18 202.13 31.51 216.04 27.00 229.00
C 62.33 229.00 97.67 229.00 133.00 229.00 Z"/>
</g>
<g fill="#000000" fill-opacity="0.50" stroke="None"><path d="
M 200.00 277.00 
C 185.88 262.05 171.00 247.17 156.00 233.00
C 170.12 247.96 185.00 262.83 200.00 277.00 Z"/>
</g>
<g fill="#000000" fill-opacity="0.50" stroke="None"><path d="
M 248.00 277.00 
C 262.95 262.88 277.83 248.00 292.00 233.00
C 277.05 247.12 262.17 262.00 248.00 277.00 Z"/>
</g>
<g fill="#000000" fill-opacity="0.00" stroke="None"><path d="
M 87.00 246.00 
C 82.33 246.00 77.67 246.00 73.00 246.00
C 73.00 257.00 73.00 268.00 73.00 279.00
C 77.67 279.00 82.33 279.00 87.00 279.00
C 87.00 268.00 87.00 257.00 87.00 246.00 Z"/>
</g>
</svg>